<svg xmlns="http://www.w3.org/2000/svg" xmlns:xlink="http://www.w3.org/1999/xlink" width="360" height="76.916" viewBox="0 0 360 76.916">
  <defs>
    <clipPath id="clip-path">
      <path id="Pfad_321" data-name="Pfad 321" d="M0,2.087H360V-74.829H0Z" transform="translate(0 74.829)" fill="none"/>
    </clipPath>
    <clipPath id="clip-path-2">
      <rect id="Rechteck_1628" data-name="Rechteck 1628" width="57.739" height="47.195" fill="none"/>
    </clipPath>
    <clipPath id="clip-path-3">
      <rect id="Rechteck_1629" data-name="Rechteck 1629" width="57.74" height="47.195" fill="none"/>
    </clipPath>
  </defs>
  <g id="Gruppe_1090" data-name="Gruppe 1090" transform="translate(0 74.829)">
    <g id="Gruppe_1127" data-name="Gruppe 1127" transform="translate(0 -74.829)" clip-path="url(#clip-path)">
      <g id="Gruppe_1094" data-name="Gruppe 1094" transform="translate(-6.814 1.266)" style="mix-blend-mode: multiply;isolation: isolate">
        <g id="Gruppe_1093" data-name="Gruppe 1093">
          <g id="Gruppe_1092" data-name="Gruppe 1092" clip-path="url(#clip-path-2)">
            <g id="Gruppe_1090-2" data-name="Gruppe 1090" transform="translate(9.765 7.71)">
              <path id="Pfad_302" data-name="Pfad 302" d="M.518,1.029A19.039,19.039,0,0,0,19.624-17.942,19.039,19.039,0,0,0,.518-36.914a19.038,19.038,0,0,0-19.1,18.972A19.039,19.039,0,0,0,.518,1.029" transform="translate(18.586 36.914)" fill="#a8b8c0"/>
            </g>
            <g id="Gruppe_1091" data-name="Gruppe 1091" transform="translate(9.765 7.71)">
              <path id="Pfad_303" data-name="Pfad 303" d="M.518,1.029A19.039,19.039,0,0,0,19.624-17.942,19.039,19.039,0,0,0,.518-36.914a19.038,19.038,0,0,0-19.1,18.972A19.039,19.039,0,0,0,.518,1.029Z" transform="translate(18.586 36.914)" fill="none" stroke="#fff" stroke-width="1"/>
            </g>
          </g>
        </g>
      </g>
      <g id="Gruppe_1099" data-name="Gruppe 1099" transform="translate(25.27 21.729)" style="mix-blend-mode: multiply;isolation: isolate">
        <g id="Gruppe_1098" data-name="Gruppe 1098">
          <g id="Gruppe_1097" data-name="Gruppe 1097" clip-path="url(#clip-path-3)">
            <g id="Gruppe_1095" data-name="Gruppe 1095" transform="translate(9.764 7.71)">
              <path id="Pfad_304" data-name="Pfad 304" d="M.518,1.029A19.039,19.039,0,0,0,19.624-17.942,19.039,19.039,0,0,0,.518-36.914,19.039,19.039,0,0,0-18.587-17.942,19.039,19.039,0,0,0,.518,1.029" transform="translate(18.587 36.914)" fill="#9cb8c0"/>
            </g>
            <g id="Gruppe_1096" data-name="Gruppe 1096" transform="translate(9.764 7.71)">
              <path id="Pfad_305" data-name="Pfad 305" d="M.518,1.029A19.039,19.039,0,0,0,19.624-17.942,19.039,19.039,0,0,0,.518-36.914,19.039,19.039,0,0,0-18.587-17.942,19.039,19.039,0,0,0,.518,1.029Z" transform="translate(18.587 36.914)" fill="none" stroke="#fff" stroke-width="1"/>
            </g>
          </g>
        </g>
      </g>
      <g id="Gruppe_1104" data-name="Gruppe 1104" transform="translate(9.188 -7.195)" style="mix-blend-mode: multiply;isolation: isolate">
        <g id="Gruppe_1103" data-name="Gruppe 1103">
          <g id="Gruppe_1102" data-name="Gruppe 1102" clip-path="url(#clip-path-3)">
            <g id="Gruppe_1100" data-name="Gruppe 1100" transform="translate(9.764 7.71)">
              <path id="Pfad_306" data-name="Pfad 306" d="M.518,1.029a19.039,19.039,0,0,0,19.1-18.972A19.038,19.038,0,0,0,.518-36.914,19.039,19.039,0,0,0-18.587-17.942,19.039,19.039,0,0,0,.518,1.029" transform="translate(18.587 36.914)" fill="#c28589"/>
            </g>
            <g id="Gruppe_1101" data-name="Gruppe 1101" transform="translate(9.764 7.71)">
              <path id="Pfad_307" data-name="Pfad 307" d="M.518,1.029a19.039,19.039,0,0,0,19.1-18.972A19.038,19.038,0,0,0,.518-36.914,19.039,19.039,0,0,0-18.587-17.942,19.039,19.039,0,0,0,.518,1.029Z" transform="translate(18.587 36.914)" fill="none" stroke="#fff" stroke-width="1"/>
            </g>
          </g>
        </g>
      </g>
      <g id="Gruppe_1109" data-name="Gruppe 1109" transform="translate(8.187 30.749)" style="mix-blend-mode: multiply;isolation: isolate">
        <g id="Gruppe_1108" data-name="Gruppe 1108">
          <g id="Gruppe_1107" data-name="Gruppe 1107" clip-path="url(#clip-path-3)">
            <g id="Gruppe_1105" data-name="Gruppe 1105" transform="translate(9.764 7.71)">
              <path id="Pfad_308" data-name="Pfad 308" d="M.518,1.029A19.039,19.039,0,0,0,19.624-17.942,19.039,19.039,0,0,0,.518-36.914,19.039,19.039,0,0,0-18.587-17.942,19.039,19.039,0,0,0,.518,1.029" transform="translate(18.587 36.914)" fill="#c28589"/>
            </g>
            <g id="Gruppe_1106" data-name="Gruppe 1106" transform="translate(9.764 7.71)">
              <path id="Pfad_309" data-name="Pfad 309" d="M.518,1.029A19.039,19.039,0,0,0,19.624-17.942,19.039,19.039,0,0,0,.518-36.914,19.039,19.039,0,0,0-18.587-17.942,19.039,19.039,0,0,0,.518,1.029Z" transform="translate(18.587 36.914)" fill="none" stroke="#fff" stroke-width="1"/>
            </g>
          </g>
        </g>
      </g>
      <g id="Gruppe_1114" data-name="Gruppe 1114" transform="translate(-9.251 19.244)" style="mix-blend-mode: multiply;isolation: isolate">
        <g id="Gruppe_1113" data-name="Gruppe 1113">
          <g id="Gruppe_1112" data-name="Gruppe 1112" clip-path="url(#clip-path-3)">
            <g id="Gruppe_1110" data-name="Gruppe 1110" transform="translate(9.764 7.71)">
              <path id="Pfad_310" data-name="Pfad 310" d="M.518,1.029A19.039,19.039,0,0,0,19.624-17.942,19.039,19.039,0,0,0,.518-36.914,19.039,19.039,0,0,0-18.587-17.942,19.039,19.039,0,0,0,.518,1.029" transform="translate(18.587 36.914)" fill="#f0e992"/>
            </g>
            <g id="Gruppe_1111" data-name="Gruppe 1111" transform="translate(9.764 7.71)">
              <path id="Pfad_311" data-name="Pfad 311" d="M.518,1.029A19.039,19.039,0,0,0,19.624-17.942,19.039,19.039,0,0,0,.518-36.914,19.039,19.039,0,0,0-18.587-17.942,19.039,19.039,0,0,0,.518,1.029Z" transform="translate(18.587 36.914)" fill="none" stroke="#fff" stroke-width="1"/>
            </g>
          </g>
        </g>
      </g>
      <g id="Gruppe_1119" data-name="Gruppe 1119" transform="translate(25.386 3.813)" style="mix-blend-mode: multiply;isolation: isolate">
        <g id="Gruppe_1118" data-name="Gruppe 1118">
          <g id="Gruppe_1117" data-name="Gruppe 1117" clip-path="url(#clip-path-3)">
            <g id="Gruppe_1115" data-name="Gruppe 1115" transform="translate(9.765 7.71)">
              <path id="Pfad_312" data-name="Pfad 312" d="M.518,1.029A19.039,19.039,0,0,0,19.624-17.942,19.039,19.039,0,0,0,.518-36.914a19.038,19.038,0,0,0-19.1,18.972A19.039,19.039,0,0,0,.518,1.029" transform="translate(18.586 36.914)" fill="#f0e992"/>
            </g>
            <g id="Gruppe_1116" data-name="Gruppe 1116" transform="translate(9.765 7.71)">
              <path id="Pfad_313" data-name="Pfad 313" d="M.518,1.029A19.039,19.039,0,0,0,19.624-17.942,19.039,19.039,0,0,0,.518-36.914a19.038,19.038,0,0,0-19.1,18.972A19.039,19.039,0,0,0,.518,1.029Z" transform="translate(18.586 36.914)" fill="none" stroke="#fff" stroke-width="1"/>
            </g>
          </g>
        </g>
      </g>
      <g id="Gruppe_1120" data-name="Gruppe 1120" transform="translate(86.784 47.363)">
        <path id="Pfad_314" data-name="Pfad 314" d="M.328.035H-3.9V.694l1.757.2-2.956,9.292L-8.305.863-6.5.694V.035h-5.271V.644L-10.416.8l4.308,11.792h.963L-1.21.846.328.61Zm4.818,10.61c-.946.761-1.368,1-1.977,1a1.3,1.3,0,0,1-1.436-1.436c0-.845.389-1.588,1.876-2.18.355-.135.929-.321,1.537-.489Zm3.194.727c-.287.337-.473.473-.777.473-.389,0-.642-.27-.642-1.115V6.574c0-2.315-.929-3.227-2.99-3.227-2.078,0-3.447.9-3.733,2.348a.809.809,0,0,0,.9.743c.523,0,.878-.337,1.013-1.047l.287-1.25a3.681,3.681,0,0,1,1-.135c1.267,0,1.757.489,1.757,2.3V7c-.709.169-1.452.389-2.027.557C.652,8.4-.057,9.226-.057,10.477A2.21,2.21,0,0,0,2.376,12.74c1.182,0,1.841-.507,2.822-1.5a1.651,1.651,0,0,0,1.723,1.47,1.742,1.742,0,0,0,1.706-1.03Zm4.421-7.84-.253-.169-2.855,1v.507L11.071,5c.034.777.068,1.42.068,2.483V8.567c0,.879-.016,2.231-.05,3.194l-1.3.186v.541h4.748v-.541l-1.572-.237c-.016-.946-.034-2.263-.034-3.142V7.148A4.661,4.661,0,0,1,14.517,4.6l.22.219a1.676,1.676,0,0,0,1.233.659c.743,0,1.064-.507,1.081-1.284a1.391,1.391,0,0,0-1.42-.844c-1.047,0-2.145.912-2.7,2.5Zm7.7-2.229A1.188,1.188,0,0,0,21.693.12a1.174,1.174,0,0,0-1.233-1.166A1.178,1.178,0,0,0,19.209.12,1.192,1.192,0,0,0,20.459,1.3m.98,10.458c-.016-.947-.034-2.3-.034-3.194V6.049l.034-2.517L21.2,3.364l-3.092.963V4.85l1.436.136c.034.811.051,1.452.051,2.5V8.567c0,.879-.017,2.231-.034,3.194l-1.318.186v.541h4.41v-.541Zm7.712-1.115c-.946.761-1.368,1-1.977,1a1.3,1.3,0,0,1-1.436-1.436c0-.845.389-1.588,1.876-2.18.355-.135.929-.321,1.537-.489Zm3.194.727c-.288.337-.473.473-.777.473-.389,0-.642-.27-.642-1.115V6.574c0-2.315-.929-3.227-2.99-3.227-2.078,0-3.447.9-3.733,2.348a.809.809,0,0,0,.9.743c.523,0,.878-.337,1.013-1.047l.287-1.25a3.681,3.681,0,0,1,1-.135c1.267,0,1.757.489,1.757,2.3V7c-.709.169-1.452.389-2.027.557-2.467.845-3.176,1.672-3.176,2.923a2.21,2.21,0,0,0,2.433,2.263c1.182,0,1.841-.507,2.822-1.5a1.651,1.651,0,0,0,1.723,1.47,1.742,1.742,0,0,0,1.706-1.03Zm6.03-.068a1.992,1.992,0,0,1-1.233.524c-.676,0-1.1-.406-1.1-1.369v-6.1h2.4V3.6H36.06L36.144.981H34.928l-.575,2.585-1.638.186v.609h1.537v4.46c0,.693-.016,1.132-.016,1.638a2,2,0,0,0,2.213,2.281,2.607,2.607,0,0,0,2.263-1.064Zm3.66-10A1.187,1.187,0,0,0,43.268.12a1.173,1.173,0,0,0-1.233-1.166A1.178,1.178,0,0,0,40.785.12,1.192,1.192,0,0,0,42.035,1.3m.981,10.458c-.017-.947-.034-2.3-.034-3.194V6.049l.034-2.517-.237-.169-3.091.963V4.85l1.436.136c.034.811.05,1.452.05,2.5V8.567c0,.879-.016,2.231-.034,3.194l-1.318.186v.541h4.41v-.541Zm6.6.98a4.32,4.32,0,0,0,4.376-4.7,4.395,4.395,0,1,0-8.769,0,4.324,4.324,0,0,0,4.393,4.7m0-.675c-1.538,0-2.417-1.352-2.417-4,0-2.669.879-4.054,2.417-4.054,1.5,0,2.416,1.385,2.416,4.054,0,2.653-.913,4-2.416,4m14.4-.3c-.017-.947-.034-2.264-.034-3.194V6.658c0-2.331-.879-3.311-2.449-3.311a4.5,4.5,0,0,0-3.3,1.706L58.1,3.532l-.254-.169-2.854,1v.507L56.407,5c.034.777.068,1.42.068,2.483V8.567c0,.879-.016,2.231-.05,3.194l-1.318.186v.541h4.41v-.541L58.3,11.76c-.016-.947-.034-2.3-.034-3.194V5.712a3.75,3.75,0,0,1,2.45-1.2c1,0,1.47.541,1.47,2.129V8.567c0,.929-.017,2.247-.034,3.194l-1.318.186v.541h4.41v-.541Zm6.673-2.983a1.293,1.293,0,1,0,0-2.585,1.293,1.293,0,1,0,0,2.585m9.36-2.795c0-1.944,0-3.6.016-5.255h1.47c1.909,0,2.788.912,2.788,2.534a2.573,2.573,0,0,1-2.872,2.721Zm6.149,5.76L85.4,8.855a2.752,2.752,0,0,0-2.433-2.467C85.246,6,86.26,4.7,86.26,3.262c0-2.027-1.622-3.227-4.46-3.227H76.393V.644L78.066.83c.033,1.655.033,3.345.033,5v.861c0,1.69,0,3.362-.033,5l-1.673.186v.609h5.373v-.609l-1.706-.186c-.016-1.638-.016-3.294-.016-5.035h.946c1.5,0,2.044.439,2.383,1.892l.709,2.822c.2.963.777,1.318,2.044,1.318a4.925,4.925,0,0,0,1.537-.2v-.609Zm4.031-4.426C90.358,5,91.457,4.006,92.554,4.006A2.026,2.026,0,0,1,94.5,6.219c0,.709-.186,1.1-.963,1.1Zm5.9.659a3.534,3.534,0,0,0,.118-1.031,3.387,3.387,0,0,0-3.565-3.6A4.444,4.444,0,0,0,88.28,8.06c0,2.974,1.807,4.68,4.358,4.68a3.8,3.8,0,0,0,3.548-2.145l-.338-.236a3.042,3.042,0,0,1-2.585,1.3c-1.74,0-3.007-1.166-3.058-3.683ZM99.794,1.3A1.188,1.188,0,0,0,101.027.12a1.174,1.174,0,0,0-1.233-1.166A1.178,1.178,0,0,0,98.544.12,1.192,1.192,0,0,0,99.794,1.3m.98,10.458c-.016-.947-.034-2.3-.034-3.194V6.049l.034-2.517-.236-.169-3.092.963V4.85l1.436.136c.034.811.051,1.452.051,2.5V8.567c0,.879-.017,2.231-.034,3.194l-1.318.186v.541h4.41v-.541Zm9.683-1.42a3,3,0,0,1-2.535,1.318c-1.791,0-3.058-1.368-3.058-3.785,0-2.449,1.133-3.868,2.771-3.868a2.734,2.734,0,0,1,.9.135l.3,1.3c.118.693.473,1.047,1.064,1.047a.845.845,0,0,0,.9-.727A3.174,3.174,0,0,0,107.5,3.347a4.44,4.44,0,0,0-4.528,4.713c0,2.906,1.773,4.68,4.29,4.68a3.565,3.565,0,0,0,3.548-2.229Zm10.329,1.42c-.016-.947-.034-2.264-.034-3.194V6.674c0-2.382-.879-3.327-2.467-3.327a4.478,4.478,0,0,0-3.328,1.739V1.522l.051-2.652-.236-.136-3.024.727v.524L113.2.12V8.567c0,.879-.016,2.231-.034,3.194l-1.352.186v.541h4.41v-.541l-1.2-.186c-.016-.947-.034-2.3-.034-3.194V5.695a3.642,3.642,0,0,1,2.483-1.182c.981,0,1.47.523,1.47,2.129V8.567c0,.929-.016,2.247-.033,3.194l-1.3.186v.541h4.41v-.541ZM136.479,3.6h-3.414v.575l1.5.22-1.824,6.031-2.2-6.048,1.4-.2V3.6h-4.089v.575l1.368.186L127.1,10.477l-1.993-6.133,1.436-.169V3.6h-4.376v.575l1.014.152,3.008,8.261h.777l2.467-6.775c.4,1.335,1,3.008,2.416,6.775h.761l2.8-8.211,1.065-.2Zm2.405,3.717c.135-2.315,1.233-3.311,2.331-3.311a2.026,2.026,0,0,1,1.943,2.213c0,.709-.186,1.1-.963,1.1Zm5.9.659a3.534,3.534,0,0,0,.118-1.031,3.387,3.387,0,0,0-3.565-3.6,4.444,4.444,0,0,0-4.392,4.713c0,2.974,1.807,4.68,4.358,4.68a3.8,3.8,0,0,0,3.548-2.145l-.338-.236a3.042,3.042,0,0,1-2.585,1.3c-1.74,0-3.007-1.166-3.058-3.683ZM148.455,1.3A1.188,1.188,0,0,0,149.689.12a1.174,1.174,0,0,0-1.233-1.166A1.178,1.178,0,0,0,147.205.12a1.192,1.192,0,0,0,1.25,1.183m.98,10.458c-.016-.947-.034-2.3-.034-3.194V6.049l.034-2.517-.236-.169-3.092.963V4.85l1.436.136c.034.811.051,1.452.051,2.5V8.567c0,.879-.017,2.231-.034,3.194l-1.318.186v.541h4.41v-.541Zm7.389-.456a1.988,1.988,0,0,1-1.232.524c-.676,0-1.1-.406-1.1-1.369v-6.1h2.4V3.6H154.51l.084-2.619h-1.217L152.8,3.566l-1.639.186v.609H152.7v4.46c0,.693-.016,1.132-.016,1.638A2,2,0,0,0,154.9,12.74a2.608,2.608,0,0,0,2.263-1.064Zm2.9-3.987c.136-2.315,1.233-3.311,2.331-3.311A2.026,2.026,0,0,1,164,6.219c0,.709-.185,1.1-.962,1.1Zm5.9.659a3.5,3.5,0,0,0,.118-1.031,3.387,3.387,0,0,0-3.565-3.6,4.444,4.444,0,0,0-4.392,4.713c0,2.974,1.808,4.68,4.358,4.68a3.8,3.8,0,0,0,3.548-2.145l-.338-.236a3.04,3.04,0,0,1-2.584,1.3c-1.74,0-3.008-1.166-3.058-3.683Zm5.846.8a1.293,1.293,0,1,0,0-2.585,1.293,1.293,0,1,0,0,2.585M180.1,7.705l1.842-5.778,1.909,5.778Zm7.045,4L183.154-.033H181.9l-3.886,11.691-1.486.22v.609h4.055v-.609l-1.758-.22,1.047-3.26h4.191l1.081,3.278-1.74.2v.609H188.6v-.609Zm11.368.068-3.142-5.321,2.111-2.061,1.724-.22V3.6h-4.309v.575l1.538.287-3.447,3.464v-6.4l.068-2.652-.254-.136-3.058.727v.524l1.453.135V8.567c0,.963-.017,2.2-.034,3.194l-1.4.186v.541h4.612v-.541l-1.352-.186c-.016-.913-.034-2.028-.034-2.974l1.115-1.1,2.77,4.8h2.805v-.541Zm7.453-.473a1.99,1.99,0,0,1-1.232.524c-.676,0-1.1-.406-1.1-1.369v-6.1h2.4V3.6H203.65l.084-2.619h-1.217l-.574,2.585-1.639.186v.609h1.538v4.46c0,.693-.017,1.132-.017,1.638a2,2,0,0,0,2.214,2.281,2.608,2.608,0,0,0,2.263-1.064Zm9.987.49V6.286L216,3.634l-.186-.186-2.922.355v.507l1.284.254-.034,5.778a3.43,3.43,0,0,1-2.4,1.149c-.98,0-1.5-.541-1.5-2.146V6.286l.068-2.652-.169-.186-2.957.338v.523l1.3.254-.05,4.781c-.034,2.5.928,3.4,2.5,3.4a4.3,4.3,0,0,0,3.244-1.791l.135,1.706,2.855-.169v-.541Zm7.737-1.149c-.946.761-1.368,1-1.977,1a1.3,1.3,0,0,1-1.436-1.436c0-.845.389-1.588,1.876-2.18.355-.135.929-.321,1.537-.489Zm3.194.727c-.288.337-.473.473-.777.473-.389,0-.642-.27-.642-1.115V6.574c0-2.315-.929-3.227-2.99-3.227-2.078,0-3.447.9-3.733,2.348a.809.809,0,0,0,.9.743c.523,0,.878-.337,1.014-1.047l.287-1.25a3.681,3.681,0,0,1,1-.135c1.267,0,1.757.489,1.757,2.3V7c-.709.169-1.452.389-2.027.557-2.467.845-3.176,1.672-3.176,2.923a2.21,2.21,0,0,0,2.433,2.263c1.182,0,1.841-.507,2.822-1.5a1.651,1.651,0,0,0,1.723,1.47,1.742,1.742,0,0,0,1.706-1.03Zm4.632.389c-.016-1.047-.033-2.163-.033-3.194V1.522l.067-2.652-.253-.136-3.058.727v.524l1.452.135V8.567c0,1.031-.016,2.146-.034,3.194l-1.418.186v.541h4.68v-.541ZM236.457,1.3A1.187,1.187,0,0,0,237.689.12a1.173,1.173,0,0,0-1.232-1.166A1.179,1.179,0,0,0,235.206.12,1.193,1.193,0,0,0,236.457,1.3m.98,10.458c-.017-.947-.034-2.3-.034-3.194V6.049l.034-2.517-.236-.169-3.092.963V4.85l1.436.136c.034.811.05,1.452.05,2.5V8.567c0,.879-.016,2.231-.034,3.194l-1.318.186v.541h4.41v-.541Zm7.389-.456a1.99,1.99,0,0,1-1.233.524c-.675,0-1.1-.406-1.1-1.369v-6.1h2.4V3.6h-2.383L242.6.981h-1.217L240.8,3.566l-1.638.186v.609H240.7v4.46c0,.693-.017,1.132-.017,1.638A2,2,0,0,0,242.9,12.74a2.609,2.609,0,0,0,2.264-1.064Zm7.352-9.985a1.057,1.057,0,0,0,1.1-1.064,1.068,1.068,0,0,0-1.1-1.065,1.078,1.078,0,0,0-1.1,1.065,1.066,1.066,0,0,0,1.1,1.064m-4,0A1.061,1.061,0,0,0,249.289.255,1.072,1.072,0,0,0,248.175-.81a1.068,1.068,0,0,0-1.1,1.065,1.057,1.057,0,0,0,1.1,1.064m3.294,9.326c-.947.761-1.369,1-1.977,1a1.3,1.3,0,0,1-1.436-1.436c0-.845.389-1.588,1.875-2.18.355-.135.929-.321,1.538-.489Zm3.193.727c-.287.337-.473.473-.777.473-.389,0-.642-.27-.642-1.115V6.574c0-2.315-.929-3.227-2.99-3.227-2.077,0-3.447.9-3.733,2.348a.809.809,0,0,0,.9.743c.523,0,.879-.337,1.013-1.047l.288-1.25a3.669,3.669,0,0,1,1-.135c1.267,0,1.758.489,1.758,2.3V7c-.71.169-1.453.389-2.028.557-2.466.845-3.176,1.672-3.176,2.923A2.21,2.21,0,0,0,248.7,12.74c1.183,0,1.842-.507,2.822-1.5a1.651,1.651,0,0,0,1.723,1.47,1.745,1.745,0,0,0,1.707-1.03Zm6.03-.068a1.99,1.99,0,0,1-1.233.524c-.675,0-1.1-.406-1.1-1.369v-6.1h2.4V3.6h-2.383l.084-2.619h-1.216l-.575,2.585-1.638.186v.609h1.538v4.46c0,.693-.017,1.132-.017,1.638a2,2,0,0,0,2.213,2.281,2.61,2.61,0,0,0,2.264-1.064Z" transform="translate(11.768 1.266)" fill="#c28589"/>
      </g>
      <g id="Gruppe_1121" data-name="Gruppe 1121" transform="translate(338.53 27.435)">
        <path id="Pfad_315" data-name="Pfad 315" d="M0,0" transform="translate(0 0)" fill="#fff"/>
      </g>
      <g id="Gruppe_1122" data-name="Gruppe 1122" transform="translate(175.314 19.956)">
        <path id="Pfad_316" data-name="Pfad 316" d="M0,.568H11.058V-2.2H3.405V-19.5H0Zm14.578,0H25.636V-2.2H17.982V-19.5h-3.4Zm21.333,0h3.4V-8.14h.271c1.145,0,1.477.242,3.405,3.014L46.818.568h3.827l-4.4-6.388a10.083,10.083,0,0,0-2.231-2.712v-.061c2.772-.331,5.093-2.019,5.093-5.333,0-3.586-2.592-5.574-7.051-5.574H35.91Zm3.4-11.239v-6.147h2.441c2.712,0,3.947,1.055,3.947,3.043s-1.175,3.1-3.766,3.1ZM76.368.568h3.1l1.416-11.54c.15-1.357.241-2.351.27-2.923h.061c.181.543.482,1.537.9,2.833L86.191.568h3.314l4.008-11.631c.452-1.326.724-2.29.874-2.833h.061c.03.482.151,1.416.331,2.863L96.256.568h3.465L96.978-19.5H93.694L89.174-6.543c-.543,1.537-.9,2.772-1.145,3.555h-.061c-.241-.814-.6-2.019-1.114-3.555L82.394-19.5H79.11Zm31.88-7.081,2.109-5.725c.573-1.567.9-2.741,1.114-3.465h.061c.242.693.543,1.778,1.145,3.465l2.079,5.725ZM102.312.568h3.4l1.537-4.309h8.527L117.348.568h3.706L113.25-19.5h-3.284Zm21.893,0h3.1V-12.359c0-1.114-.09-2.139-.121-2.44h.061c.3.482.9,1.6,1.777,2.8L137.765.568H140.9V-19.5h-3.1V-7.447c0,1.507.09,2.622.12,2.953h-.06c-.271-.452-.934-1.627-2.02-3.194L127.61-19.5H124.2Zm39.036-16.844a2.065,2.065,0,0,0,2.109-2.049,2.065,2.065,0,0,0-2.109-2.049,2.057,2.057,0,0,0-2.079,2.049,2.057,2.057,0,0,0,2.079,2.049M161.644.568h3.224V-14.016h-3.224Z" transform="translate(0 20.373)" fill="#2b2e34"/>
      </g>
      <g id="Gruppe_1123" data-name="Gruppe 1123" transform="translate(88.072 20.468)">
        <path id="Pfad_317" data-name="Pfad 317" d="M0,.544H3.1L4.52-11c.151-1.357.242-2.351.271-2.923h.061c.18.543.482,1.537.9,2.833L9.822.544h3.315l4.008-11.631c.452-1.326.723-2.29.874-2.833h.061c.03.482.15,1.416.331,2.863L19.887.544h3.466L20.61-19.523H17.326L12.806-6.566c-.543,1.537-.9,2.772-1.145,3.555H11.6c-.242-.814-.6-2.019-1.115-3.555L6.027-19.523H2.742Z" transform="translate(0 19.523)" fill="#2b2e34"/>
      </g>
      <g id="Gruppe_1124" data-name="Gruppe 1124" transform="translate(114.17 20.468)">
        <path id="Pfad_318" data-name="Pfad 318" d="M.564.282a10.4,10.4,0,0,0-10.4-10.4,10.4,10.4,0,0,0-10.4,10.4,10.4,10.4,0,0,0,10.4,10.4A10.4,10.4,0,0,0,.564.282M-2.879.311c0,3.9-2.307,7.274-6.984,7.274-4.613,0-6.92-3.435-6.92-7.361s2.37-7.246,7.016-7.246S-2.879-3.615-2.879.311" transform="translate(20.227 10.113)" fill="#2b2e34"/>
      </g>
      <g id="Gruppe_1125" data-name="Gruppe 1125" transform="translate(228.062 20.468)">
        <path id="Pfad_319" data-name="Pfad 319" d="M.564.282a10.4,10.4,0,0,0-10.4-10.4,10.4,10.4,0,0,0-10.4,10.4,10.4,10.4,0,0,0,10.4,10.4A10.4,10.4,0,0,0,.564.282M-2.879.311c0,3.9-2.307,7.274-6.984,7.274-4.613,0-6.92-3.435-6.92-7.361s2.37-7.246,7.016-7.246S-2.879-3.615-2.879.311" transform="translate(20.227 10.113)" fill="#2b2e34"/>
      </g>
      <g id="Gruppe_1126" data-name="Gruppe 1126" transform="translate(138.597 20.83)">
        <path id="Pfad_320" data-name="Pfad 320" d="M0,.544H5.3c7.986,0,11.571-4.52,11.571-10.3s-3.526-9.763-11.42-9.763H0ZM3.405-2.2V-16.782H5.424c5.364,0,7.864,2.2,7.864,7.142,0,4.881-2.622,7.442-7.714,7.442Z" transform="translate(0 19.523)" fill="#2b2e34"/>
      </g>
    </g>
    <g id="Gruppe_1128" data-name="Gruppe 1128" transform="translate(159.731 -53.999)">
      <path id="Pfad_322" data-name="Pfad 322" d="M0,.544H11.209V-2.288H3.375V-8.616h6.719v-2.712H3.375v-5.364H11v-2.832H0Z" transform="translate(0 19.523)" fill="#2b2e34"/>
    </g>
    <g id="Gruppe_1130" data-name="Gruppe 1130" transform="translate(0 -74.829)" clip-path="url(#clip-path)">
      <g id="Gruppe_1129" data-name="Gruppe 1129" transform="translate(319.379 20.83)">
        <path id="Pfad_323" data-name="Pfad 323" d="M.372,0h-13.72V2.833h5.605V20.067h3.435V2.833H.52A5.462,5.462,0,0,1,.239,1.175,5.481,5.481,0,0,1,.372,0" transform="translate(13.348)" fill="#2b2e34"/>
      </g>
    </g>
    <g id="Gruppe_1131" data-name="Gruppe 1131" transform="translate(344.933 -53.999)">
      <path id="Pfad_325" data-name="Pfad 325" d="M.293,0-7.12,9.219V0H-10.5V20.067H-7.12V10L.474,20.067h4.1L-3.564,9.37,4.118,0Z" transform="translate(10.495)" fill="#2b2e34"/>
    </g>
  </g>
</svg>
